Coordinates
nRows=9
nColumns=38

# SIMM Motion File Header:
name Coordinates
datacolumns 38
datarows 9
otherdata 1
range 1.41100000000000000000 1.41900000000000000000

Units are S.I. units (second, meters, Newtons, ...)
Angles are in degrees.

endheader
time	pelvis_tilt	pelvis_list	pelvis_rotation	pelvis_tx	pelvis_ty	pelvis_tz	hip_flexion_r	hip_adduction_r	hip_rotation_r	knee_angle_r	ankle_angle_r	subtalar_angle_r	mtp_angle_r	hip_flexion_l	hip_adduction_l	hip_rotation_l	knee_angle_l	ankle_angle_l	subtalar_angle_l	mtp_angle_l	lumbar_extension	lumbar_bending	lumbar_rotation	arm_flex_r	arm_add_r	arm_rot_r	elbow_flex_r	pro_sup_r	wrist_flex_r	wrist_dev_r	arm_flex_l	arm_add_l	arm_rot_l	elbow_flex_l	pro_sup_l	wrist_flex_l	wrist_dev_l
      1.41100000000000000000	    -11.72991434268502800000	     -2.44997191248170280000	     -3.22259816932151640000	      0.99160485441531976000	      0.98200541242919981000	     -0.34220290894971461000	     15.73051297803468900000	      7.69010655706566660000	      2.12767646409477340000	    -33.64236265881666600000	     21.53650305637853900000	     -0.00000000000000809070	     -0.00000000000003910650	     45.52447334496290700000	     -2.60772752874979960000	     -0.28299211747780145000	    -89.08787640938756200000	      4.29912930741696100000	     -0.00000000000000193106	     -0.00000000000000679924	     -1.61743725832318350000	      6.93105308141372860000	     11.28578617081618600000	    -15.60690521363443900000	    -21.88779060510427100000	     -7.78685488241410710000	    104.42669434807969000000	    107.20495412608598000000	     -0.00000000000000045062	     -0.00000000000000270423	    -34.63359113024409200000	    -13.78782609702781200000	     -1.07311921311039700000	    102.41242980099548000000	    101.20893200745169000000	      0.00000000000000447931	      0.00000000000000637105
      1.41200000000000010000	    -11.72337692365214900000	     -2.41530553539743260000	     -3.16583364924462350000	      0.99174551784832277000	      0.98261027925763433000	     -0.34220219114617328000	     15.36418155052421300000	      7.63026663567394350000	      2.13049407723054430000	    -33.31796727065400900000	     21.32142301509435700000	     -0.00000000000000830610	     -0.00000000000003940273	     45.61566970617184300000	     -2.56736981128814760000	     -0.32068164793940285000	    -88.72663762501204600000	      4.34178740947148790000	     -0.00000000000000198982	     -0.00000000000000691422	     -1.59641372858959470000	      6.87057660163964810000	     11.32627931977506500000	    -15.55783567356965400000	    -21.84949930246225900000	     -7.80378285851424370000	    104.66977186965634000000	    107.27887162049277000000	     -0.00000000000000045468	     -0.00000000000000273422	    -34.80232089481524600000	    -13.82938475814943400000	     -1.14858521784776600000	    102.65045335003846000000	    101.26336869087297000000	      0.00000000000000451574	      0.00000000000000648492
      1.41300000000000000000	    -11.71649200970295200000	     -2.38031350877125640000	     -3.10836153634314400000	      0.99189019459528138000	      0.98322120911045707000	     -0.34220093811549773000	     14.99794672862552000000	      7.57007724367657090000	      2.13185438920155600000	    -32.99305982072927900000	     21.09797774565923200000	     -0.00000000000000853255	     -0.00000000000003969829	     45.70294736238562900000	     -2.52708724822772580000	     -0.35996889833689955000	    -88.35998256652959500000	      4.38459725285797130000	     -0.00000000000000204790	     -0.00000000000000701819	     -1.57540291414483580000	      6.80929082607543720000	     11.36451138699493800000	    -15.50925870103973000000	    -21.81059938339716500000	     -7.81961558180852820000	    104.91283101843595000000	    107.35578275829120000000	     -0.00000000000000045867	     -0.00000000000000276825	    -34.97171939796175600000	    -13.87048642521107800000	     -1.22664875428424080000	    102.88862223605243000000	    101.32601061107846000000	      0.00000000000000455450	      0.00000000000000659733
      1.41400000000000010000	    -11.70927654715878000000	     -2.34497475258819280000	     -3.05017041962679160000	      0.99203872965879769000	      0.98383794910304978000	     -0.34219926104389076000	     14.63195533451750800000	      7.50949836104509140000	      2.13165257146512130000	    -32.66784725778965300000	     20.86620169229552600000	     -0.00000000000000876165	     -0.00000000000003999466	     45.78633840818353200000	     -2.48683232925406280000	     -0.40086409040333609000	    -87.98795360462037300000	      4.42752853656376640000	     -0.00000000000000211063	     -0.00000000000000711953	     -1.55441710794061840000	      6.74718859807396230000	     11.40050205402376100000	    -15.46120622082932700000	    -21.77112632681734500000	     -7.83432529133317690000	    105.15583189151818000000	    107.43547661402816000000	     -0.00000000000000046270	     -0.00000000000000280783	    -35.14171045023143600000	    -13.91113721118911600000	     -1.30720116468573870000	    103.12677927698812000000	    101.39626618968980000000	      0.00000000000000459293	      0.00000000000000670742
      1.41500000000000000000	    -11.70175013572517900000	     -2.30926783827400990000	     -2.99125103118859180000	      0.99219096825384545000	      0.98446024200677551000	     -0.34219727102056663000	     14.26635438749861600000	      7.44849107867174180000	      2.12978597705726580000	    -32.34253306062839100000	     20.62613586357959900000	     -0.00000000000000898107	     -0.00000000000004026341	     45.86587764979712700000	     -2.44655591077031790000	     -0.44337709996953256000	    -87.61059231168033500000	      4.47055401962462540000	     -0.00000000000000217231	     -0.00000000000000722103	     -1.53346547176511020000	      6.68426280950124600000	     11.43427422682598900000	    -15.41371375228187700000	    -21.73111747356412600000	     -7.84788626233411350000	    105.39874341735690000000	    107.51773597843409000000	     -0.00000000000000046703	     -0.00000000000000284124	    -35.31222093867385300000	    -13.95134422274953300000	     -1.39013056809860800000	    103.36477655226966000000	    101.47352810392881000000	      0.00000000000000463412	      0.00000000000000681648
      1.41600000000000010000	    -11.69393489494337300000	     -2.27317133219767480000	     -2.93159621836312970000	      0.99234675591544430000	      0.98508782663731209000	     -0.34219507866667170000	     13.90129081807740600000	      7.38701808034331360000	      2.12615449571549010000	    -32.01731698690709700000	     20.37782776374313100000	     -0.00000000000000919774	     -0.00000000000004054330	     45.94160246876988700000	     -2.40620754732024130000	     -0.48751710641190082000	    -87.22793947313657300000	      4.51364954436070590000	     -0.00000000000000223020	     -0.00000000000000732403	     -1.51255419087636960000	      6.62050672314947160000	     11.46585379382942300000	    -15.36681989314665000000	    -21.69061195337360800000	     -7.86027474210133280000	    105.64154285928964000000	    107.60233927041961000000	     -0.00000000000000047093	     -0.00000000000000286761	    -35.48318078704440400000	    -13.99111530125743600000	     -1.47532251613971340000	    103.60247510761681000000	    101.55717709679479000000	      0.00000000000000468190	      0.00000000000000692694
      1.41700000000000000000	    -11.68585532749801800000	     -2.23666414880238530000	     -2.87120088382907030000	      0.99250593861436209000	      0.98572043823002031000	     -0.34219279379693651000	     13.53691117527536900000	      7.32504412395740890000	      2.12066087763750670000	    -31.69239480718815500000	     20.12133129885177900000	     -0.00000000000000942621	     -0.00000000000004082918	     46.01355269029175300000	     -2.36573580766775260000	     -0.53329221269855764000	    -86.84003509989121000000	      4.55679405406932410000	     -0.00000000000000228599	     -0.00000000000000742621	     -1.49168662661433670000	      6.55591430450252770000	     11.49526935146978500000	    -15.32056580522550600000	    -21.64965061023626800000	     -7.87146888536575060000	    105.88421532068003000000	    107.68906244883067000000	     -0.00000000000000047496	     -0.00000000000000289334	    -35.65452291623849100000	    -14.03045876340387600000	     -1.56266064882359260000	    103.83974465936386000000	    101.64658578726157000000	      0.00000000000000473671	      0.00000000000000703677
      1.41800000000000010000	    -11.67753818085117100000	     -2.19972590932628440000	     -2.81006190772496960000	      0.99266836287734994000	      0.98635780880278690000	     -0.34219052509600534000	     13.17336133090808300000	      7.26253652222876680000	      2.11321103965684020000	    -31.36795802981252000000	     19.85670668011765000000	     -0.00000000000000965857	     -0.00000000000004111402	     46.08177045486986100000	     -2.32508858243064200000	     -0.58070904864223616000	    -86.44691844070418100000	      4.59996960750460100000	     -0.00000000000000233562	     -0.00000000000000752772	     -1.47086346701481770000	      6.49048055858634940000	     11.52255191127434800000	    -15.27499470194678500000	    -21.60827592607661900000	     -7.88144868924449150000	    106.12675325144848000000	    107.77768092407074000000	     -0.00000000000000047955	     -0.00000000000000292367	    -35.82618320497135000000	    -14.06938314148336900000	     -1.65202735044667830000	    104.07646329813872000000	    101.74112248048901000000	      0.00000000000000478816	      0.00000000000000714615
      1.41900000000000000000	    -11.66901230814309200000	     -2.16233730361389040000	     -2.74817806055006920000	      0.99283387590929395000	      0.98699966750725598000	     -0.34218837979822131000	     12.81078618326593400000	      7.19946562307275960000	      2.10371436250956510000	    -31.04419362126456200000	     19.58402034958052700000	     -0.00000000000000986533	     -0.00000000000004135796	     46.14630009249866300000	     -2.28421338765450880000	     -0.62977236519787338000	    -86.04862799385347200000	      4.64316139160541040000	     -0.00000000000000237920	     -0.00000000000000763670	     -1.45008287547422450000	      6.42420186927842170000	     11.54773459725791600000	    -15.23015133794679700000	    -21.56653194273497900000	     -7.89019592772818880000	    106.36915595581547000000	    107.86797146966052000000	     -0.00000000000000048459	     -0.00000000000000294934	    -35.99810045065275000000	    -14.10789692338566500000	     -1.74330440555167420000	    104.31251719184556000000	    101.84015497803713000000	      0.00000000000000483102	      0.00000000000000725605
